<?xml version="1.0" encoding="utf-8"?>
<svg version="1.1" id="Ebene_1" xmlns="http://www.w3.org/2000/svg" xmlns:xlink="http://www.w3.org/1999/xlink" x="0px" y="0px"
     viewBox="0 0 256 256" style="enable-background:new 0 0 256 256;" xml:space="preserve">
<style type="text/css">
	.st0{fill:#6970A6;}
	.st1{fill:#FFFFFF;}
	.st2{opacity:0.4;fill:#6970A6;}
</style>
    <g>
	<rect class="st0" width="256" height="256"/>
        <polygon class="st1" points="61.9,190 97.1,144.9 132.3,190 	"/>
        <polygon class="st1" points="95.6,190 144.8,126.9 194.1,190 	"/>
        <polygon class="st2" points="140.9,183.2 120.9,157.5 113.9,166.5 132.3,190 146.2,190 	"/>
        <path class="st1" d="M197.4,42.2v13.9l18.5-18.5l-18.5-18.5v14c-20.5,0-37.1,16.5-37.1,37c0,0,0,0.1,0,0.1
		c-0.1,7,1.9,13.8,5.6,19.7l6.9-6.9c-2.2-4-3.3-8.5-3.2-13C169.6,54.7,182,42.3,197.4,42.2z M223.5,48.6l-6.9,6.9
		c2.1,4,3.2,8.5,3.2,13c0,15.3-12.4,27.8-27.8,27.8l0,0V82.3l-18.5,18.5l18.5,18.5v-13.9c20.5,0,37.1-16.5,37.1-37c0,0,0-0.1,0-0.1
		C229.1,61.3,227.1,54.5,223.5,48.6z"/>
        <g>
		<path class="st1" d="M205.3,111.9l-0.1,88.3c0,2.7-2.2,4.9-4.9,4.9H55.7c-2.7,0-4.9-2.2-4.9-4.9V55.7c0-2.7,2.2-4.9,4.9-4.9h100.4
			c1.9-4,4.4-7.7,7.3-11H55.7c-8.8,0-15.9,7.1-15.9,15.9v144.5c0,8.8,7.1,15.9,15.9,15.9h144.5c8.8,0,15.9-7.1,15.9-15.9V107
			C212.8,109.1,209.1,110.7,205.3,111.9z"/>
            <path class="st1" d="M216.1,82.3c-2.6,4.4-6.3,8.1-10.8,10.5l0,10c4-1.5,7.6-3.7,10.8-6.4V82.3z"/>
	</g>
</g>
</svg>
